<?xml version="1.0" encoding="utf-8"?>
<!-- Generator: Adobe Illustrator 24.1.2, SVG Export Plug-In . SVG Version: 6.00 Build 0)  -->
<svg version="1.1" id="Warstwa_3" xmlns="http://www.w3.org/2000/svg" xmlns:xlink="http://www.w3.org/1999/xlink" x="0px" y="0px"
	 viewBox="0 0 430 430" style="enable-background:new 0 0 430 430;" xml:space="preserve">
<style type="text/css">
	.st0{fill:#08a88a;}
	.st1{fill:#121331;}
	.st2{fill:none;}
	.st3{fill-opacity:0;}
</style>
<g>
	<path class="st1" d="M362.33,341.84c0,0-0.01,0-0.01,0c-20.23-0.03-295-0.46-295-0.46c-3.57-0.01-6.46-2.9-6.46-6.46L60.39,94.53
		c0-1.72,0.68-3.37,1.9-4.59c1.21-1.21,2.86-1.9,4.58-1.9c0,0,0.01,0,0.01,0l79.73,0.12c1.96,0,3.82,0.9,5.05,2.43l22.11,27.67
		l189.29,0.3c3.57,0.01,6.46,2.89,6.46,6.46l0.09,42.3c0.01,3.58-2.88,6.48-6.46,6.49c0,0-0.01,0-0.01,0
		c-3.57,0-6.47-2.89-6.47-6.46l-0.08-35.85l-185.95-0.29c-1.97,0-3.82-0.9-5.05-2.43l-22.11-27.67L73.35,101l0.44,227.44
		c41.54,0.06,270.16,0.42,288.54,0.45c3.58,0.01,6.47,2.91,6.46,6.49C368.79,338.95,365.9,341.84,362.33,341.84z"/>
	<path class="st1" d="M363.04,341.96c-3.58,0-6.47-2.9-6.47-6.48V174.99H73.52v159.56c0,3.58-2.9,6.48-6.47,6.48
		s-6.47-2.9-6.47-6.48V168.52c0-3.58,2.9-6.48,6.47-6.48h296c3.58,0,6.47,2.9,6.47,6.48v166.96
		C369.52,339.06,366.62,341.96,363.04,341.96z"/>
</g>
</svg>
