<?xml version="1.0" encoding="utf-8"?>
<!-- Generator: Adobe Illustrator 24.1.2, SVG Export Plug-In . SVG Version: 6.00 Build 0)  -->
<svg version="1.1" id="Warstwa_1" xmlns="http://www.w3.org/2000/svg" xmlns:xlink="http://www.w3.org/1999/xlink" x="0px" y="0px"
	 viewBox="0 0 430 430" style="enable-background:new 0 0 430 430;" xml:space="preserve">
<style type="text/css">
	.st0{fill:#121331;}
	.st1{fill:#08a88a;}
	.st2{fill:#08a88a;}
	.st3{fill:#08A688;}
	.st4{fill:#08A284;}
	.st5{fill:none;stroke:#121331;stroke-width:12;stroke-linecap:round;stroke-linejoin:round;stroke-miterlimit:10;}
	.st6{fill:none;stroke:#08a88a;stroke-width:12;stroke-linecap:round;stroke-linejoin:round;stroke-miterlimit:10;}
	.st7{fill:none;}
	.st8{fill:none;stroke:#08A385;stroke-width:12;stroke-linecap:round;stroke-linejoin:round;stroke-miterlimit:10;}
	.st9{fill:#08A385;}
	.st10{fill:none;stroke:#08a88a;stroke-width:12;stroke-linecap:round;stroke-linejoin:round;stroke-miterlimit:10;}
</style>
<g>
	<g>
		<path class="st0" d="M305.46,393.41c-2.22-9.11-12.8-15.9-18.08-18.96c-1.88-10.87-9.4-55.31-21.17-125.13
			c-0.55-3.27-3.63-5.47-6.91-4.92c-3.27,0.55-5.47,3.65-4.92,6.91c3.91,23.19,9.3,55.16,13.73,81.33
			c2.21,13.09,4.18,24.73,5.61,33.1c0.71,4.19,1.29,7.56,1.69,9.89c0.15,0.88,0.29,1.66,0.42,2.35c-0.01,0.2,0,0.39,0.01,0.59
			c0.11,1.54,0.69,2.65,1.42,3.48c0.38,0.5,0.86,0.91,1.5,1.27c0.39,0.26,0.76,0.47,1.08,0.65c10.43,5.86,13.13,9.94,13.81,11.79
			h-40.3l-32.54-135.49c0-0.02-0.01-0.04-0.02-0.06c-0.03-0.12-0.07-0.24-0.11-0.36c-0.02-0.07-0.05-0.15-0.07-0.22
			c-0.03-0.09-0.07-0.18-0.11-0.28c-0.04-0.1-0.08-0.19-0.12-0.28c-0.03-0.06-0.06-0.12-0.09-0.17c-0.06-0.12-0.12-0.24-0.19-0.35
			c-0.02-0.03-0.04-0.06-0.06-0.09c-0.08-0.13-0.17-0.26-0.27-0.39c-0.02-0.02-0.04-0.04-0.05-0.06c-0.1-0.13-0.2-0.26-0.31-0.38
			c-0.04-0.04-0.07-0.07-0.11-0.11c-0.1-0.1-0.19-0.2-0.29-0.29c-0.06-0.06-0.13-0.11-0.2-0.17c-0.08-0.07-0.16-0.13-0.24-0.2
			c-0.08-0.06-0.16-0.11-0.25-0.17c-0.08-0.05-0.15-0.11-0.23-0.16c-0.08-0.05-0.16-0.09-0.24-0.13c-0.09-0.05-0.18-0.1-0.28-0.15
			c-0.07-0.03-0.14-0.06-0.21-0.09c-0.12-0.05-0.23-0.1-0.35-0.14c-0.05-0.02-0.11-0.03-0.17-0.05c-0.14-0.05-0.28-0.09-0.42-0.12
			c-0.02,0-0.03-0.01-0.04-0.01c-0.04-0.01-0.08-0.01-0.12-0.02c-0.14-0.03-0.28-0.06-0.42-0.08c-0.07-0.01-0.14-0.02-0.21-0.02
			c-0.12-0.01-0.25-0.03-0.37-0.03c-0.09,0-0.18,0-0.28,0c-0.1,0-0.2,0-0.29,0c-0.12,0.01-0.24,0.02-0.35,0.03
			c-0.07,0.01-0.15,0.01-0.22,0.03c-0.14,0.02-0.27,0.05-0.41,0.08c-0.04,0.01-0.08,0.01-0.13,0.02c-0.02,0-0.03,0.01-0.05,0.01
			c-0.14,0.03-0.27,0.07-0.4,0.12c-0.06,0.02-0.12,0.04-0.18,0.06c-0.11,0.04-0.22,0.09-0.33,0.13c-0.08,0.03-0.15,0.06-0.23,0.1
			c-0.09,0.04-0.17,0.09-0.25,0.13c-0.09,0.05-0.18,0.09-0.27,0.15c-0.07,0.04-0.14,0.09-0.21,0.14c-0.09,0.06-0.19,0.12-0.28,0.19
			c-0.07,0.05-0.14,0.12-0.21,0.17c-0.08,0.06-0.16,0.12-0.23,0.19c-0.09,0.08-0.18,0.18-0.27,0.27c-0.04,0.05-0.09,0.09-0.13,0.13
			c-0.1,0.11-0.2,0.23-0.3,0.36c-0.02,0.03-0.05,0.05-0.07,0.08c-0.09,0.12-0.18,0.25-0.26,0.38c-0.02,0.03-0.05,0.07-0.07,0.1
			c-0.07,0.11-0.13,0.23-0.19,0.34c-0.03,0.06-0.06,0.12-0.09,0.18c-0.04,0.09-0.08,0.19-0.12,0.28c-0.04,0.09-0.08,0.18-0.11,0.28
			c-0.03,0.07-0.05,0.15-0.07,0.22c-0.04,0.12-0.08,0.24-0.11,0.36c0,0.02-0.01,0.04-0.02,0.06l-32.54,135.49h-40.3
			c0.69-1.85,3.38-5.92,13.8-11.79c0.32-0.18,0.68-0.38,1.06-0.63c0.62-0.35,1.1-0.75,1.48-1.23c0.77-0.84,1.38-1.98,1.47-3.59
			c0.01-0.16,0.01-0.32,0.01-0.47c0.12-0.62,0.24-1.31,0.37-2.07c0.37-2.11,0.89-5.17,1.55-8.99c1.31-7.64,3.13-18.3,5.2-30.44
			c4.14-24.28,9.26-54.44,13.27-78l1.26-7.4c0.56-3.27-1.64-6.37-4.91-6.92c-3.27-0.56-6.37,1.64-6.92,4.91l-1.26,7.4
			c-6.79,39.93-17.72,104.25-20.1,117.92c-5.28,3.06-15.88,9.86-18.09,18.97c-0.98,4.03-0.25,8.06,2.1,11.64
			c1.11,1.69,2.99,2.7,5.01,2.7h49.73c2.77,0,5.19-1.9,5.83-4.6l27.81-115.8l27.81,115.8c0.65,2.7,3.06,4.6,5.83,4.6h49.73
			c2.02,0,3.91-1.02,5.02-2.71C305.72,401.47,306.45,397.45,305.46,393.41z"/>
		<path class="st0" d="M174.1,225.13c0.34,0.06,0.69,0.09,1.03,0.09c2.87,0,5.4-2.06,5.91-4.98c0.06-0.37,0.08-0.57,0.08-0.57
			c0.35-3.28-2.01-6.29-5.29-6.66c-3.28-0.37-6.23,1.91-6.63,5.19C168.64,221.46,170.83,224.56,174.1,225.13z"/>
	</g>
	<path class="st0" d="M255.46,245.12h-80.93c-3.31,0-6-2.69-6-6s2.69-6,6-6h80.93c3.31,0,6,2.69,6,6S258.78,245.12,255.46,245.12z"
		/>
	<path class="st0" d="M323.12,245.12h-41.65c-3.31,0-6-2.69-6-6s2.69-6,6-6h41.65c3.31,0,6,2.69,6,6S326.43,245.12,323.12,245.12z"
		/>
	<path class="st0" d="M148.54,245.12H107c-3.31,0-6-2.69-6-6s2.69-6,6-6h41.53c3.31,0,6,2.69,6,6S151.85,245.12,148.54,245.12z"/>
	<path class="st0" d="M388.46,245.12h-26.69c-3.31,0-6-2.69-6-6s2.69-6,6-6h26.69c3.31,0,6,2.69,6,6S391.78,245.12,388.46,245.12z"
		/>
	<path class="st0" d="M68.33,245.12h-26.8c-3.31,0-6-2.69-6-6s2.69-6,6-6h26.8c3.31,0,6,2.69,6,6S71.65,245.12,68.33,245.12z"/>
	<path class="st1" d="M249.62,104.03c-11.43-1.33-23.03-2.01-34.5-2.01c-0.04,0-0.08,0-0.12,0c0,0,0,0-0.01,0c-0.04,0-0.08,0-0.12,0
		c-11.46,0-23.07,0.68-34.5,2.01c-21.58,2.51-37.85,20.89-37.85,42.74V258.3c0,3.04,2.27,5.6,5.29,5.96
		c0.15,0.02,1.2,0.13,2.83,0.13c4.54,0,13.64-0.89,20.81-7.26c6.4-5.68,9.64-14.09,9.64-24.98v-7.19h67.77v7.19
		c0,10.89,3.24,19.3,9.64,24.98c7.17,6.37,16.27,7.26,20.81,7.26c1.64,0,2.69-0.12,2.83-0.13c3.02-0.36,5.29-2.92,5.29-5.96V146.77
		C287.47,124.91,271.2,106.54,249.62,104.03z M275.47,252.1c-2.83-0.45-6.28-1.52-9.03-4c-3.68-3.31-5.55-8.68-5.55-15.96v-82.88
		c0-3.31-2.69-6-6-6c0,0-0.01,0-0.01,0s-0.01,0-0.01,0c-3.31,0-6,2.69-6,6v63.69h-67.71l-0.04-63.69c0-0.11-0.01-0.22-0.02-0.34
		c-0.01-0.09,0-0.18-0.01-0.27c-0.01-0.11-0.03-0.22-0.05-0.33c-0.01-0.09-0.02-0.18-0.04-0.27c-0.03-0.13-0.06-0.25-0.1-0.37
		c-0.02-0.07-0.03-0.14-0.05-0.2c-0.05-0.17-0.12-0.34-0.18-0.5c-0.01-0.02-0.01-0.03-0.02-0.05c-0.74-1.76-2.3-3.08-4.19-3.51
		c-0.04-0.01-0.08-0.02-0.13-0.03c-0.39-0.08-0.79-0.12-1.21-0.12c0,0,0,0,0,0c-0.1,0-0.2,0.01-0.31,0.02
		c-0.1,0.01-0.2,0.01-0.3,0.02c-0.08,0.01-0.16,0.02-0.24,0.04c-0.12,0.02-0.24,0.03-0.36,0.05c-0.06,0.01-0.11,0.03-0.17,0.04
		c-0.14,0.03-0.27,0.06-0.4,0.1c-0.11,0.03-0.21,0.08-0.31,0.11c-0.08,0.03-0.16,0.05-0.24,0.09c-0.14,0.06-0.28,0.13-0.42,0.2
		c-0.03,0.02-0.07,0.03-0.1,0.05c-0.33,0.18-0.65,0.39-0.94,0.63c-0.01,0.01-0.01,0.01-0.02,0.01c-0.73,0.6-1.31,1.37-1.69,2.25
		c-0.01,0.01-0.01,0.03-0.02,0.04c-0.07,0.17-0.14,0.35-0.19,0.52c0,0.01-0.01,0.02-0.01,0.03c-0.04,0.14-0.08,0.29-0.11,0.44
		c-0.01,0.05-0.03,0.09-0.03,0.14c-0.03,0.13-0.04,0.25-0.06,0.38c-0.01,0.07-0.03,0.14-0.03,0.21c-0.01,0.11-0.01,0.22-0.02,0.33
		c0,0.09-0.01,0.19-0.01,0.28v82.88c0,7.28-1.87,12.64-5.55,15.96c-2.76,2.48-6.21,3.55-9.03,4V146.77
		c0-15.76,11.71-29.01,27.24-30.82c10.97-1.28,22.11-1.93,33.11-1.93c0.04,0,0.09,0,0.12,0c0.04,0,0.08,0,0.12,0
		c11,0,22.14,0.65,33.11,1.93c15.53,1.81,27.24,15.06,27.24,30.82V252.1z"/>
	<path class="st0" d="M232.89,93.48h-19.71c-14.92,0-27.05-12.14-27.05-27.05V49.29c0-14.92,12.14-27.05,27.05-27.05h4.95
		c14.92,0,27.05,12.14,27.05,27.05v31.9C245.19,87.96,239.67,93.48,232.89,93.48z M213.19,34.24c-8.3,0-15.05,6.75-15.05,15.05
		v17.14c0,8.3,6.75,15.05,15.05,15.05h19.71c0.15,0,0.3-0.15,0.3-0.3v-31.9c0-8.3-6.75-15.05-15.05-15.05H213.19z"/>
	<path class="st1" d="M107,287.97H68.33c-3.31,0-6-2.69-6-6v-85.69c0-3.31,2.69-6,6-6H107c3.31,0,6,2.69,6,6v85.69
		C113,285.28,110.31,287.97,107,287.97z M74.33,275.97H101v-73.69H74.33V275.97z"/>
	<path class="st1" d="M361.78,287.97h-38.67c-3.31,0-6-2.69-6-6v-85.69c0-3.31,2.69-6,6-6h38.67c3.31,0,6,2.69,6,6v85.69
		C367.78,285.28,365.09,287.97,361.78,287.97z M329.11,275.97h26.67v-73.69h-26.67V275.97z"/>
</g>
</svg>
