<?xml version="1.0" encoding="utf-8"?>
<!-- Generator: Adobe Illustrator 24.1.2, SVG Export Plug-In . SVG Version: 6.00 Build 0)  -->
<svg version="1.1" id="outline" xmlns="http://www.w3.org/2000/svg" xmlns:xlink="http://www.w3.org/1999/xlink" x="0px" y="0px"
	 viewBox="0 0 430 430" style="enable-background:new 0 0 430 430;" xml:space="preserve">
<style type="text/css">
	.st0{fill:#121331;}
	.st1{fill:none;stroke:#121331;stroke-width:12;stroke-miterlimit:10;}
	.st2{fill:#08a88a;}
	.st3{fill:none;stroke:#121331;stroke-width:12;stroke-linecap:round;stroke-linejoin:round;stroke-miterlimit:10;}
	.st4{fill:none;stroke:#08a88a;stroke-width:12;stroke-linecap:round;stroke-linejoin:round;stroke-miterlimit:10;}
</style>
<g>
	<path class="st0" d="M267.81,319.58c-2.37,0-4.61-1.41-5.56-3.74c-1.5-3.69-3.75-9.54-5.99-16.5c-1.02-3.15,0.72-6.53,3.87-7.55
		c3.16-1.02,6.53,0.72,7.55,3.87c2.13,6.61,4.27,12.17,5.69,15.66c1.25,3.07-0.23,6.57-3.3,7.82
		C269.33,319.44,268.56,319.58,267.81,319.58z"/>
	<path class="st0" d="M162.32,319.3c-0.74,0-1.5-0.14-2.23-0.43c-3.08-1.23-4.57-4.73-3.33-7.8c2.01-5.02,3.94-10.35,5.58-15.41
		c1.02-3.15,4.4-4.88,7.55-3.86c3.15,1.02,4.88,4.4,3.86,7.55c-1.72,5.32-3.75,10.92-5.86,16.19
		C166.95,317.88,164.7,319.3,162.32,319.3z"/>
	<path class="st0" d="M199.85,86.33c-1.93,0-3.82-0.93-4.98-2.64c-2.96-4.39-4.53-9.56-4.53-14.97c0-14.29,11.06-25.91,24.65-25.91
		s24.65,11.62,24.65,25.91c0,5.34-1.54,10.47-4.44,14.82c-1.84,2.76-5.57,3.5-8.32,1.66c-2.76-1.84-3.5-5.56-1.66-8.32
		c1.58-2.37,2.42-5.19,2.42-8.16c0-7.67-5.67-13.91-12.65-13.91s-12.65,6.24-12.65,13.91c0,3,0.85,5.85,2.47,8.25
		c1.85,2.75,1.13,6.48-1.61,8.33C202.17,86,201.01,86.33,199.85,86.33z"/>
	<path class="st2" d="M39.83,301.41c-2.54,0-4.86-1.62-5.69-4.11c-0.19-0.56-4.48-13.85,1.99-25.03c3.89-6.73,10.59-11.1,19.9-13
		l46.5-9.48c8.56-10.82,45.56-57.04,51.27-63.69c11.03-12.85,25.71-15.22,33.47-15.5c0.07,0,0.14,0,0.21,0l27.53-0.01c0,0,0,0,0,0
		c3.31,0,6,2.68,6,6c0,3.31-2.68,6-6,6l-27.42,0.01c-5.83,0.22-16.69,2-24.69,11.32c-5.66,6.6-46.79,57.94-52.28,65
		c-0.88,1.13-2.13,1.91-3.54,2.19l-48.65,9.92c-5.77,1.18-9.77,3.6-11.88,7.2c-1.9,3.24-2.15,7.06-1.93,10.08
		c23.34-4.77,68.14-13.92,70.42-14.43c0.2-0.05,0.39-0.09,0.59-0.11c2.12-0.3,3.95-1.31,5.15-2.85l43.4-55.74
		c2.04-2.61,5.81-3.08,8.42-1.05c2.61,2.04,3.08,5.81,1.05,8.42l-43.4,55.73c-3.11,4-7.69,6.61-12.9,7.36
		c-2.97,0.65-15.88,3.31-76.31,15.65C40.63,301.37,40.23,301.41,39.83,301.41z"/>
	<path class="st2" d="M390.17,301.41c-0.4,0-0.8-0.04-1.2-0.12c-60.44-12.34-73.34-15-76.31-15.65c-5.21-0.74-9.79-3.35-12.9-7.36
		l-43.4-55.72c-2.04-2.61-1.57-6.38,1.05-8.42c2.61-2.04,6.38-1.57,8.42,1.05l43.4,55.73c1.2,1.55,3.03,2.56,5.15,2.85
		c0.2,0.03,0.4,0.07,0.59,0.11c2.28,0.5,47.08,9.66,70.42,14.43c0.22-3.01-0.03-6.84-1.93-10.08c-2.11-3.6-6.1-6.02-11.88-7.2
		l-48.65-9.92c-1.4-0.29-2.66-1.06-3.54-2.19c-5.49-7.06-46.62-58.4-52.28-65c-8-9.32-18.86-11.1-24.69-11.32L215,182.58
		c-3.31,0-6-2.69-6-6c0-3.31,2.69-6,6-6c0,0,0,0,0,0l27.53,0.01c0.07,0,0.14,0,0.21,0c7.77,0.27,22.45,2.65,33.47,15.5
		c5.71,6.65,42.71,52.87,51.27,63.69l46.49,9.48c9.31,1.9,16.01,6.27,19.9,13c6.47,11.18,2.17,24.47,1.99,25.03
		C395.03,299.79,392.71,301.41,390.17,301.41z"/>
	<path class="st2" d="M168.04,303.5c-0.61,0-1.23-0.09-1.84-0.29c-3.15-1.02-4.89-4.4-3.87-7.55c4.68-14.53,7.16-27.36,7.16-37.1
		c0-15.59-6.28-37.82-6.34-38.05c-0.91-3.19,0.94-6.51,4.13-7.41c3.19-0.91,6.51,0.94,7.41,4.13c0.28,0.97,6.8,24.06,6.8,41.33
		c0,11.13-2.6,24.85-7.74,40.78C172.93,301.88,170.58,303.5,168.04,303.5z"/>
	<path class="st0" d="M215,159.57c-0.77,0-1.54-0.15-2.27-0.44c-9.43-3.85-17.46-10.04-23.23-17.92
		c-2.51-3.42-8.41-12.84-9.12-26.31l0,0c-0.72-13.72,3.69-32.7,18.49-41.04c6.95-3.92,14.08-4.25,16.09-4.26
		c1.49-0.01,9.17,0.16,16.43,4.27c14.65,8.28,18.97,27.29,18.22,41.05c-0.54,9.93-3.61,18.78-9.12,26.3
		c-5.77,7.87-13.8,14.07-23.23,17.92C216.54,159.42,215.77,159.57,215,159.57z M192.36,114.27c0.55,10.54,5.36,17.86,6.82,19.85
		c3.99,5.45,9.43,9.87,15.82,12.9c6.39-3.03,11.83-7.45,15.82-12.9c4.11-5.61,6.4-12.29,6.82-19.86
		c0.45-8.32-1.59-23.99-12.14-29.95c-4.79-2.71-10.23-2.72-10.46-2.71c-0.56,0-5.62,0.1-10.27,2.72
		C195.44,89.56,191.8,103.52,192.36,114.27L192.36,114.27z"/>
	<g>
		<path class="st0" d="M144.15,359.77c-0.53,0-1.08-0.07-1.61-0.22l-25.93-7.23c-0.08-0.02-0.16-0.05-0.24-0.07
			c-15-4.88-23.25-21.06-18.37-36.07c3.85-11.83,14.79-19.78,27.22-19.78c2.99,0,5.97,0.47,8.85,1.4l83.3,27.07
			c3.15,1.02,4.88,4.41,3.85,7.56c-1.02,3.15-4.41,4.88-7.56,3.85l-83.29-27.07c-1.67-0.54-3.41-0.82-5.14-0.82
			c-7.22,0-13.57,4.62-15.8,11.49c-2.82,8.68,1.91,18.04,10.56,20.91l25.8,7.19c3.19,0.89,5.06,4.2,4.17,7.39
			C149.19,358.04,146.78,359.77,144.15,359.77z"/>
		<path class="st0" d="M249.38,387.17c-6.12,0-12.44-1.01-18.72-3.04l-16.62-4.64c-0.15-0.04-0.3-0.08-0.44-0.13
			c-3.14-1.05-4.87-4.46-3.82-7.6c1.02-3.07,4.25-4.76,7.32-3.88c0.02,0.01,0.04,0.01,0.06,0.02l16.84,4.7
			c0.08,0.02,0.16,0.05,0.24,0.07c10.4,3.38,20.82,3.32,29.34-0.16c8.07-3.3,14.02-9.46,17.33-17.89c-0.04-0.28-0.06-0.57-0.06-0.86
			c0-3.31,2.68-6,5.99-6c0.66,0,1.33,0.11,1.96,0.33l0.25,0.09c1.58,0.53,2.9,1.67,3.66,3.15c0.77,1.51,0.9,3.28,0.37,4.89
			c-4.17,12.8-13.03,22.53-24.96,27.41C262.35,385.99,255.99,387.17,249.38,387.17z M285.41,359.61
			C285.41,359.61,285.41,359.61,285.41,359.61C285.41,359.61,285.41,359.61,285.41,359.61z M281.72,352.37
			C281.72,352.37,281.72,352.37,281.72,352.37C281.72,352.37,281.72,352.37,281.72,352.37z M281.73,352.35c0,0.01,0,0.01-0.01,0.02
			C281.73,352.36,281.73,352.36,281.73,352.35z"/>
		<path class="st0" d="M215.55,379.7c-3.31,0-6-2.68-6-6v-0.01c0-0.54,0.07-1.08,0.21-1.59c0.69-2.56,3.02-4.44,5.79-4.44
			c3.31,0,6,2.69,6,6c0,0.51-0.06,1.01-0.19,1.5C220.72,377.76,218.36,379.7,215.55,379.7z"/>
	</g>
	<g>
		<path class="st0" d="M181.78,387.17c-20.39,0-37.52-11.44-43.87-30.95c-0.53-1.6-0.4-3.38,0.37-4.88c0.76-1.5,2.11-2.65,3.71-3.17
			l0.27-0.09l154.67-50.27c2.89-0.93,5.86-1.4,8.85-1.4c12.43,0,23.37,7.95,27.22,19.77c4.88,15.02-3.37,31.2-18.37,36.07
			c-0.08,0.03-0.16,0.05-0.24,0.07l-25.92,7.23c-0.06,0.02-0.12,0.03-0.18,0.05l-71.05,19.82c-0.1,0.03-0.2,0.06-0.3,0.08
			l-16.61,4.64C194,386.18,187.75,387.17,181.78,387.17z M151.48,357.7c7.81,15.22,25.63,21.37,45.28,14.99
			c0.08-0.03,0.16-0.05,0.24-0.07l16.84-4.7c0.03-0.01,0.05-0.01,0.08-0.02c0.01,0,0.02-0.01,0.03-0.01l71.29-19.89
			c0.06-0.02,0.12-0.03,0.18-0.05l25.62-7.15c8.64-2.88,13.38-12.23,10.56-20.92c-2.23-6.87-8.58-11.48-15.8-11.48
			c-1.74,0-3.47,0.28-5.15,0.82L151.48,357.7z M145.61,359.61c-0.01,0-0.02,0.01-0.03,0.01
			C145.59,359.61,145.6,359.61,145.61,359.61z M145.61,359.61C145.61,359.61,145.61,359.61,145.61,359.61
			C145.61,359.61,145.61,359.61,145.61,359.61z M312.78,346.54h0.01H312.78z"/>
		<path class="st0" d="M215.45,379.7c-2.52,0-4.86-1.6-5.7-4.12l-12.85-38.92c-1.04-3.15,0.67-6.54,3.82-7.58
			c3.14-1.04,6.54,0.67,7.58,3.82l12.85,38.92c1.04,3.15-0.67,6.54-3.82,7.58C216.7,379.6,216.07,379.7,215.45,379.7z"/>
	</g>
	<path class="st2" d="M261.97,303.5h-93.93c-3.31,0-6-2.69-6-6s2.69-6,6-6h85.84c-3.56-12.62-5.36-23.67-5.36-32.94
		c0-17.28,6.52-40.36,6.8-41.33c0.91-3.19,4.23-5.03,7.41-4.13c3.19,0.91,5.03,4.23,4.13,7.41c-0.06,0.22-6.34,22.46-6.34,38.05
		c0,9.75,2.48,22.58,7.16,37.1c0.59,1.83,0.27,3.82-0.86,5.37C265.69,302.58,263.89,303.5,261.97,303.5z"/>
</g>
</svg>
