<?xml version="1.0" encoding="utf-8"?>
<!-- Generator: Adobe Illustrator 24.1.2, SVG Export Plug-In . SVG Version: 6.00 Build 0)  -->
<svg version="1.1" id="outline" xmlns="http://www.w3.org/2000/svg" xmlns:xlink="http://www.w3.org/1999/xlink" x="0px" y="0px"
	 viewBox="0 0 430 430" style="enable-background:new 0 0 430 430;" xml:space="preserve">
<style type="text/css">
	.st0{fill:#121331;}
	.st1{fill:none;stroke:#121331;stroke-width:12;stroke-miterlimit:10;}
	.st2{fill:#08a88a;}
	.st3{fill:none;stroke:#121331;stroke-width:12;stroke-linecap:round;stroke-linejoin:round;stroke-miterlimit:10;}
	.st4{fill:none;stroke:#08a88a;stroke-width:12;stroke-linecap:round;stroke-linejoin:round;stroke-miterlimit:10;}
</style>
<g>
	<path class="st0" d="M288.88,411.3h-49.73c-2.74,0-5.13-1.86-5.81-4.51L199.7,275.71c-0.82-3.21,1.11-6.48,4.32-7.3
		c3.21-0.83,6.48,1.11,7.3,4.32L243.8,399.3h40.37c-0.69-1.85-3.39-5.92-13.79-11.78c-1.4-0.79-3.76-2.12-4.02-5.33
		c-0.01-0.13-0.02-0.27-0.02-0.4c-8.34-38.72-16.68-77.44-25.01-116.16c-0.7-3.24,1.36-6.43,4.6-7.13c3.24-0.69,6.43,1.36,7.13,4.6
		c8.24,38.27,16.48,76.55,24.73,114.82c5.23,3.03,15.97,9.87,18.2,19.04c0.98,4.03,0.25,8.05-2.1,11.63
		C292.78,410.28,290.9,411.3,288.88,411.3z M268.59,386.32C268.59,386.33,268.59,386.33,268.59,386.32
		C268.59,386.33,268.59,386.33,268.59,386.32z"/>
	<path class="st0" d="M244.99,260.15c-2.76,0-5.25-1.92-5.86-4.73c-1.01-4.66-2.01-9.32-3.02-13.97l-0.15-0.68
		c-0.09-0.42-0.13-0.84-0.13-1.26c0-3.31,2.69-6,6-6c2.95,0,5.4,2.12,5.9,4.92l0.11,0.5c1,4.65,2,9.3,3.01,13.95
		c0.7,3.24-1.35,6.43-4.59,7.14C245.84,260.11,245.42,260.15,244.99,260.15z"/>
	<path class="st0" d="M171.87,411.3h-49.73c-2.02,0-3.9-1.02-5.01-2.7c-2.35-3.58-3.08-7.61-2.1-11.64
		c2.23-9.18,12.97-16.01,18.2-19.03c10.02-46.56,20.05-93.13,30.09-139.69c0.7-3.24,3.89-5.3,7.13-4.6c3.24,0.7,5.3,3.89,4.6,7.13
		c-10.13,47.03-20.26,94.05-30.38,141.08c0,0.07,0,0.14-0.01,0.21c-0.19,3.31-2.58,4.66-4.01,5.46
		c-10.42,5.86-13.11,9.93-13.8,11.79h40.38l32.48-126.58c0.82-3.21,4.1-5.15,7.3-4.32c3.21,0.82,5.14,4.09,4.32,7.3L177.69,406.8
		C177,409.45,174.61,411.3,171.87,411.3z"/>
	<path class="st0" d="M274.36,157.19c-2.59,0-5.2-0.81-7.42-2.5l-12.39-9.41c0,0,0,0,0,0c-11.88-9.02-14.2-26.03-5.18-37.91
		l7.21-9.49c9.02-11.88,26.03-14.2,37.91-5.17l0.63,0.48c11.88,9.03,14.2,26.03,5.18,37.91l-16.13,21.24
		C281.75,155.52,278.08,157.19,274.36,157.19z M261.81,135.72l12.39,9.41c0.12,0.09,0.32,0.06,0.42-0.06l16.13-21.24
		c5.02-6.61,3.73-16.07-2.88-21.09l-0.63-0.48c-6.61-5.02-16.07-3.73-21.1,2.88l-7.21,9.49
		C253.91,121.24,255.21,130.7,261.81,135.72L261.81,135.72z"/>
	<path class="st2" d="M241.84,245.51h-72.67c-1.75,0-3.42-0.77-4.56-2.1c-1.14-1.33-1.64-3.1-1.37-4.83l17.29-110.42
		c0.51-3.27,3.59-5.5,6.86-5c3.27,0.51,5.51,3.58,5,6.86l-16.2,103.49h60.74l7.24-36.18c0.65-3.25,3.81-5.35,7.06-4.71
		c3.25,0.65,5.36,3.81,4.71,7.06l-8.2,41C247.17,243.49,244.7,245.51,241.84,245.51z"/>
	<path class="st2" d="M218.52,145.24c-1.06,0-2.14-0.28-3.11-0.87c-2.83-1.72-3.73-5.41-2.01-8.24l23.65-38.93
		c1.35-2.22,3.1-4.1,5.22-5.59l43.51-34.44c3.71-4.18,5.32-8.27,4.93-12.49c-0.47-5.04-3.69-9.4-6.26-12.14L226.84,77.2
		c-0.07,0.06-0.15,0.11-0.23,0.17c-0.74,0.52-1.36,1.17-1.84,1.93L191.69,132c-1.76,2.81-5.46,3.65-8.27,1.89
		c-2.81-1.76-3.65-5.46-1.89-8.27l33.09-52.71c1.31-2.08,2.98-3.85,4.97-5.28l61.5-47.68c2.12-1.65,5.08-1.68,7.24-0.08
		c0.53,0.39,12.97,9.73,14.32,23.58c0.76,7.82-2.03,15.27-8.31,22.14c-0.22,0.24-0.45,0.46-0.71,0.66l-44.05,34.87
		c-0.11,0.08-0.21,0.16-0.32,0.24c-0.79,0.54-1.45,1.24-1.95,2.06l-23.65,38.93C222.53,144.21,220.55,145.24,218.52,145.24z"/>
	<path class="st2" d="M259.86,280.84c-0.64,0-1.28-0.1-1.9-0.31c-0.5-0.17-12.28-4.21-17.04-15.37c-3.13-7.32-2.53-15.66,1.78-24.79
		c0.27-0.58,0.63-1.11,1.07-1.57l21.01-22.14l-18.26-13.31c-2.68-1.95-3.27-5.71-1.32-8.38c1.95-2.68,5.7-3.27,8.38-1.32
		l23.78,17.33c1.4,1.02,2.28,2.58,2.44,4.3c0.16,1.72-0.43,3.42-1.62,4.67l-25.02,26.37c-2.44,5.53-2.85,10.27-1.21,14.11
		c1.47,3.45,4.35,5.76,6.61,7.13l40.77-41.84c2.86-2.94,4.33-6.97,4.02-11.06c-0.31-4.09-2.37-7.85-5.64-10.32
		c-69.26-52.27-80.04-58.88-81.69-59.66c-3-1.41-4.28-4.99-2.87-7.99c1.41-3,4.99-4.28,7.98-2.87c5.43,2.56,33.63,23.06,83.81,60.94
		c6.02,4.54,9.8,11.46,10.37,18.99c0.57,7.52-2.12,14.94-7.39,20.34l-43.77,44.92C263.01,280.2,261.45,280.84,259.86,280.84z"/>
</g>
</svg>
