<?xml version="1.0" encoding="utf-8"?>
<!-- Generator: Adobe Illustrator 24.1.2, SVG Export Plug-In . SVG Version: 6.00 Build 0)  -->
<svg version="1.1" id="Warstwa_3" xmlns="http://www.w3.org/2000/svg" xmlns:xlink="http://www.w3.org/1999/xlink" x="0px" y="0px"
	 viewBox="0 0 430 430" style="enable-background:new 0 0 430 430;" xml:space="preserve">
<style type="text/css">
	.st0{fill:#121331;}
	.st1{fill:#08a88a;}
	.st2{fill:none;stroke:#121331;stroke-width:12;stroke-linecap:round;stroke-linejoin:round;stroke-miterlimit:10;}
	.st3{fill:none;stroke:#08a88a;stroke-width:12;stroke-linecap:round;stroke-linejoin:round;stroke-miterlimit:10;}
	.st4{fill:#08a88a;}
</style>
<g>
	<path class="st0" d="M323.21,83.48c-1,0-2-0.25-2.93-0.77l-33.13-18.62l-33.13,18.62c-1.83,1.03-4.06,1.03-5.88,0L215,64.09
		l-33.13,18.62c-1.83,1.03-4.06,1.03-5.88,0l-33.14-18.62l-33.14,18.62c-2.89,1.62-6.55,0.6-8.17-2.29
		c-1.62-2.89-0.6-6.55,2.29-8.17l36.08-20.28c1.82-1.03,4.05-1.03,5.88,0l33.14,18.62l33.13-18.62c1.83-1.03,4.05-1.03,5.88,0
		l33.13,18.62l33.13-18.62c1.83-1.03,4.05-1.03,5.88,0l36.07,20.28c2.89,1.62,3.91,5.28,2.29,8.17
		C327.35,82.38,325.31,83.48,323.21,83.48z"/>
	<g>
		<path class="st0" d="M287.53,172.82H142.47c-3.31,0-6-2.69-6-6s2.69-6,6-6h145.05c3.31,0,6,2.69,6,6S290.84,172.82,287.53,172.82z
			"/>
		<path class="st0" d="M106.78,380.35c-1.05,0-2.09-0.27-3.03-0.82c-1.84-1.08-2.97-3.05-2.97-5.18V55.65c0-3.31,2.69-6,6-6
			s6,2.69,6,6v308.44l27.14-15.25c1.82-1.03,4.05-1.03,5.88,0l33.14,18.62l33.13-18.62c1.83-1.03,4.05-1.03,5.88,0l33.13,18.62
			l33.13-18.62c1.83-1.03,4.05-1.03,5.88,0l27.13,15.25V55.65c0-3.31,2.69-6,6-6s6,2.69,6,6v318.7c0,2.13-1.13,4.1-2.97,5.18
			c-1.84,1.08-4.11,1.1-5.97,0.05l-33.13-18.62l-33.13,18.62c-1.83,1.03-4.05,1.03-5.88,0L215,360.95l-33.13,18.62
			c-1.83,1.03-4.06,1.03-5.88,0l-33.14-18.62l-33.14,18.62C108.81,380.09,107.79,380.35,106.78,380.35z"/>
		<path class="st0" d="M205.5,219.37h-63.03c-3.31,0-6-2.69-6-6s2.69-6,6-6h63.03c3.31,0,6,2.69,6,6S208.81,219.37,205.5,219.37z"/>
		<path class="st0" d="M205.5,107.85h-63.03c-3.31,0-6-2.69-6-6s2.69-6,6-6h63.03c3.31,0,6,2.69,6,6S208.81,107.85,205.5,107.85z"/>
		<path class="st0" d="M205.5,265.91h-63.03c-3.31,0-6-2.69-6-6s2.69-6,6-6h63.03c3.31,0,6,2.69,6,6S208.81,265.91,205.5,265.91z"/>
		<path class="st0" d="M205.5,312.46h-63.03c-3.31,0-6-2.69-6-6s2.69-6,6-6h63.03c3.31,0,6,2.69,6,6S208.81,312.46,205.5,312.46z"/>
		<g>
			<path class="st1" d="M263.06,312.46c-3.31,0-6-2.69-6-6V290.9c0-3.31,2.69-6,6-6s6,2.69,6,6v15.56
				C269.06,309.77,266.37,312.46,263.06,312.46z"/>
			<path class="st1" d="M263.06,231.37c-3.31,0-6-2.69-6-6v-12c0-3.31,2.69-6,6-6s6,2.69,6,6v12
				C269.06,228.68,266.37,231.37,263.06,231.37z"/>
			<path class="st1" d="M264.63,296.94c-0.63,0-1.25-0.02-1.88-0.05c-10.21-0.56-20.1-5.69-26.48-13.73
				c-2.06-2.6-1.62-6.37,0.97-8.43c2.6-2.06,6.37-1.62,8.43,0.97c4.27,5.39,10.89,8.83,17.71,9.2c1.38,0.07,2.76,0.02,4.08-0.14
				c2.34-0.3,5.69-1.11,8.3-3.27c2.02-1.67,3.31-4.06,3.36-6.24c0.16-6.69-4.97-8.81-16.7-12.06l-0.98-0.27
				c-9.29-2.57-24.86-6.88-23.06-23.75c0.88-8.29,7.2-15.72,15.73-18.49c2.91-0.95,5.97-1.39,9.08-1.32
				c10.66,0.21,21.11,6.43,26.61,15.84c1.67,2.86,0.71,6.54-2.15,8.21c-2.87,1.67-6.54,0.71-8.21-2.15
				c-3.38-5.79-10.02-9.77-16.5-9.9c-1.76-0.04-3.49,0.21-5.12,0.74c-3.97,1.29-7.13,4.8-7.5,8.34c-0.58,5.49,2.1,7.53,14.34,10.92
				l0.98,0.27c10.93,3.03,25.89,7.17,25.49,23.91c-0.14,5.72-2.94,11.26-7.7,15.2c-3.82,3.17-8.82,5.22-14.45,5.93
				C267.55,296.85,266.09,296.94,264.63,296.94z"/>
		</g>
	</g>
	<path class="st1" d="M348.43,61.79H81.57c-3.31,0-6-2.69-6-6s2.69-6,6-6h266.87c3.31,0,6,2.69,6,6S351.75,61.79,348.43,61.79z"/>
</g>
</svg>
