<?xml version="1.0" encoding="utf-8"?>
<!-- Generator: Adobe Illustrator 24.1.2, SVG Export Plug-In . SVG Version: 6.00 Build 0)  -->
<svg version="1.1" id="Warstwa_3" xmlns="http://www.w3.org/2000/svg" xmlns:xlink="http://www.w3.org/1999/xlink" x="0px" y="0px"
	 viewBox="0 0 430 430" style="enable-background:new 0 0 430 430;" xml:space="preserve">
<style type="text/css">
	.st0{fill:#121331;}
	.st1{fill:#08a88a;}
	.st2{fill:#08a88a;}
	.st3{fill:none;stroke:#08a88a;stroke-width:12;stroke-linecap:round;stroke-linejoin:round;stroke-miterlimit:10;}
</style>
<g>
	<path class="st0" d="M347.47,79.02h-27.76V68.48c0-3.31-2.69-6-6-6s-6,2.69-6,6v10.54H207.51V68.48c0-3.31-2.69-6-6-6s-6,2.69-6,6
		v10.54H95.3V68.48c0-3.31-2.69-6-6-6s-6,2.69-6,6v10.54H55.54c-11.12,0-20.16,9.04-20.16,20.15v222.02
		c0,11.12,9.04,20.16,20.16,20.16h231.14c3.31,0,6-2.69,6-6s-2.69-6-6-6H55.54c-4.5,0-8.16-3.66-8.16-8.16V136.68h308.24v122.41
		c0,3.31,2.69,6,6,6s6-2.69,6-6V99.17C367.63,88.06,358.59,79.02,347.47,79.02z M47.38,124.68V99.17c0-4.49,3.66-8.15,8.16-8.15
		H83.3v10.97c0,3.31,2.69,6,6,6s6-2.69,6-6V91.02h100.21v10.97c0,3.31,2.69,6,6,6s6-2.69,6-6V91.02h100.21v10.97c0,3.31,2.69,6,6,6
		s6-2.69,6-6V91.02h27.76c4.49,0,8.15,3.66,8.15,8.15v25.51H47.38z"/>
	<g>
		<g>
			<path class="st0" d="M92.98,219.15c-13.85,0-25.13-11.27-25.13-25.13s11.27-25.13,25.13-25.13s25.13,11.27,25.13,25.13
				S106.83,219.15,92.98,219.15z M92.98,180.9c-7.24,0-13.13,5.89-13.13,13.13s5.89,13.13,13.13,13.13s13.13-5.89,13.13-13.13
				S100.22,180.9,92.98,180.9z"/>
			<path class="st1" d="M165.33,219.15c-13.85,0-25.13-11.27-25.13-25.13s11.27-25.13,25.13-25.13s25.13,11.27,25.13,25.13
				S179.18,219.15,165.33,219.15z M165.33,180.9c-7.24,0-13.13,5.89-13.13,13.13s5.89,13.13,13.13,13.13s13.13-5.89,13.13-13.13
				S172.57,180.9,165.33,180.9z"/>
			<path class="st0" d="M237.68,219.15c-13.85,0-25.13-11.27-25.13-25.13s11.27-25.13,25.13-25.13s25.13,11.27,25.13,25.13
				S251.54,219.15,237.68,219.15z M237.68,180.9c-7.24,0-13.13,5.89-13.13,13.13s5.89,13.13,13.13,13.13s13.13-5.89,13.13-13.13
				S244.92,180.9,237.68,180.9z"/>
			<path class="st0" d="M310.03,219.15c-13.85,0-25.13-11.27-25.13-25.13s11.27-25.13,25.13-25.13s25.13,11.27,25.13,25.13
				S323.89,219.15,310.03,219.15z M310.03,180.9c-7.24,0-13.13,5.89-13.13,13.13s5.89,13.13,13.13,13.13s13.13-5.89,13.13-13.13
				S317.27,180.9,310.03,180.9z"/>
		</g>
		<g>
			<path class="st1" d="M92.98,297.13c-13.85,0-25.13-11.27-25.13-25.13s11.27-25.13,25.13-25.13s25.13,11.27,25.13,25.13
				S106.83,297.13,92.98,297.13z M92.98,258.88c-7.24,0-13.13,5.89-13.13,13.13s5.89,13.13,13.13,13.13s13.13-5.89,13.13-13.13
				S100.22,258.88,92.98,258.88z"/>
			<path class="st0" d="M165.33,297.13c-13.85,0-25.13-11.27-25.13-25.13s11.27-25.13,25.13-25.13s25.13,11.27,25.13,25.13
				S179.18,297.13,165.33,297.13z M165.33,258.88c-7.24,0-13.13,5.89-13.13,13.13s5.89,13.13,13.13,13.13s13.13-5.89,13.13-13.13
				S172.57,258.88,165.33,258.88z"/>
			<path class="st0" d="M237.68,297.13c-13.85,0-25.13-11.27-25.13-25.13s11.27-25.13,25.13-25.13s25.13,11.27,25.13,25.13
				S251.54,297.13,237.68,297.13z M237.68,258.88c-7.24,0-13.13,5.89-13.13,13.13s5.89,13.13,13.13,13.13s13.13-5.89,13.13-13.13
				S244.92,258.88,237.68,258.88z"/>
		</g>
	</g>
	<path class="st1" d="M333.56,367.52c-33.67,0-61.05-27.39-61.05-61.05s27.39-61.05,61.05-61.05s61.05,27.39,61.05,61.05
		S367.23,367.52,333.56,367.52z M333.56,257.41c-27.05,0-49.05,22.01-49.05,49.05c0,27.05,22.01,49.05,49.05,49.05
		s49.05-22.01,49.05-49.05C382.62,279.41,360.61,257.41,333.56,257.41z"/>
	<path class="st1" d="M360.2,300.46h-20.64v-20.64c0-3.31-2.69-6-6-6s-6,2.69-6,6v20.64h-20.64c-3.31,0-6,2.69-6,6s2.69,6,6,6h20.64
		v20.64c0,3.31,2.69,6,6,6s6-2.69,6-6v-20.64h20.64c3.31,0,6-2.69,6-6S363.51,300.46,360.2,300.46z"/>
</g>
</svg>
